HIERARCHY
ROOT Hips
{
	OFFSET	0.00	0.00	0.00
	CHANNELS 6 Xposition Yposition Zposition Zrotation Xrotation Yrotation
	JOINT LeftUpLeg
	{
		OFFSET	 0.126116	-0.065224	 0.014019
		CHANNELS 3 Zrotation Xrotation Yrotation
		JOINT LeftLeg
		{
			OFFSET	 0.000000	 0.569914	 0.000000
			CHANNELS 3 Zrotation Xrotation Yrotation
			JOINT LeftFoot
			{
				OFFSET	 0.000000	 0.544423	 0.000000
				CHANNELS 3 Zrotation Xrotation Yrotation
				JOINT LeftToeBase
				{
					OFFSET	 0.000000	 0.207117	 0.000000
					CHANNELS 3 Zrotation Xrotation Yrotation
					End Site
					{
						OFFSET	 0.000000	 0.207117	 0.000000
					}
				}
			}
		}
	}
	JOINT RightUpLeg
	{
		OFFSET	-0.124023	-0.065224	 0.008373
		CHANNELS 3 Zrotation Xrotation Yrotation
		JOINT RightLeg
		{
			OFFSET	 0.000000	 0.570047	 0.000000
			CHANNELS 3 Zrotation Xrotation Yrotation
			JOINT RightFoot
			{
				OFFSET	 0.000000	 0.544354	 0.000000
				CHANNELS 3 Zrotation Xrotation Yrotation
				JOINT RightToeBase
				{
					OFFSET	 0.000000	 0.207540	 0.000000
					CHANNELS 3 Zrotation Xrotation Yrotation
					End Site
					{
						OFFSET	 0.000000	 0.207540	 0.000000
					}
				}
			}
		}
	}
	JOINT Spine
	{
		OFFSET	 0.000184	 0.117403	 0.007763
		CHANNELS 3 Zrotation Xrotation Yrotation
		JOINT Spine1
		{
			OFFSET	 0.000000	 0.137269	 0.000000
			CHANNELS 3 Zrotation Xrotation Yrotation
			JOINT Spine2
			{
				OFFSET	 0.000000	 0.156879	 0.000000
				CHANNELS 3 Zrotation Xrotation Yrotation
				JOINT LeftShoulder
				{
					OFFSET	 0.080501	 0.160143	 0.002496
					CHANNELS 3 Zrotation Xrotation Yrotation
					JOINT LeftArm
					{
						OFFSET	 0.000000	 0.164363	 0.000000
						CHANNELS 3 Zrotation Xrotation Yrotation
						JOINT LeftForeArm
						{
							OFFSET	 0.000000	 0.364576	 0.000000
							CHANNELS 3 Zrotation Xrotation Yrotation
							JOINT LeftHand
							{
								OFFSET	 0.000000	 0.360812	 0.000000
								CHANNELS 3 Zrotation Xrotation Yrotation
								JOINT LeftHandIndex1
								{
									OFFSET	 0.000000	 0.086006	 0.000000
									CHANNELS 3 Zrotation Xrotation Yrotation
									JOINT LeftHandIndex2
									{
										OFFSET	 0.000000	 0.047237	 0.000000
										CHANNELS 3 Zrotation Xrotation Yrotation
										JOINT LeftHandIndex3
										{
											OFFSET	-0.004284	 0.038165	 0.000551
											CHANNELS 3 Zrotation Xrotation Yrotation
											End Site
											{
												OFFSET	-0.004284	 0.038165	 0.000551
											}
										}
									}
								}
							}
						}
					}
				}
				JOINT Neck
				{
					OFFSET	 0.000000	 0.176489	 0.000000
					CHANNELS 3 Zrotation Xrotation Yrotation
					JOINT Head
					{
						OFFSET	 0.000000	 0.077941	 0.001747
						CHANNELS 3 Zrotation Xrotation Yrotation
						End Site
						{
							OFFSET	 0.000000	 0.077941	 0.001747
						}
					}
				}
				JOINT RightShoulder
				{
					OFFSET	-0.080363	 0.159706	-0.000306
					CHANNELS 3 Zrotation Xrotation Yrotation
					JOINT RightArm
					{
						OFFSET	 0.000000	 0.164196	 0.000000
						CHANNELS 3 Zrotation Xrotation Yrotation
						JOINT RightForeArm
						{
							OFFSET	 0.000000	 0.365611	 0.000000
							CHANNELS 3 Zrotation Xrotation Yrotation
							JOINT RightHand
							{
								OFFSET	 0.000000	 0.360648	 0.000000
								CHANNELS 3 Zrotation Xrotation Yrotation
								JOINT RightHandIndex1
								{
									OFFSET	 0.000000	 0.069977	 0.000000
									CHANNELS 3 Zrotation Xrotation Yrotation
									JOINT RightHandIndex2
									{
										OFFSET	 0.000000	 0.052305	 0.000000
										CHANNELS 3 Zrotation Xrotation Yrotation
										JOINT RightHandIndex3
										{
											OFFSET	 0.009002	 0.042196	 0.000782
											CHANNELS 3 Zrotation Xrotation Yrotation
											End Site
											{
												OFFSET	 0.009002	 0.042196	 0.000782
											}
										}
									}
								}
							}
						}
					}
				}
			}
		}
	}
}
MOTION
Frames:    10
Frame Time: 0.03333334
-0.033199	 1.254834	-0.024874	 1.806287	-1.218301	 177.962500	-161.385700	 15.028770	-29.364890	 5.766033	-20.674880	 5.679769	-1.761808	 60.930830	-3.071279	 1.150394	 26.531870	-2.655060	 170.475900	 7.538002	 32.028000	-2.197223	-26.841170	 10.485760	 19.627170	 73.935240	-16.253170	-1.344652	 29.099630	 2.734443	 0.020172	 6.171627	-0.291103	-1.036002	 5.405665	 2.626617	 1.454768	-4.773544	-0.162145	-107.285300	 4.158812	 92.733810	 6.784659	 48.891840	 19.071910	 37.634720	-0.654508	 37.143270	 25.872490	-26.876700	 30.678130	 1.298535	 24.711250	-0.512518	-5.918161	 30.060340	 3.356838	 5.561725	 9.805811	-0.080448	 3.933909	-8.028406	-1.365592	 0.101550	-6.400595	 0.194234	 114.589200	 17.657150	-97.471790	 15.909440	 40.350850	-24.121390	-46.944420	-0.766352	-37.324490	-7.325299	-25.623030	-42.946730	-2.575099	 4.917063	 0.748986	 12.561650	 23.221120	-5.237509	-8.507872	 13.963800	-0.579928
-0.018835	 1.255301	-0.014879	 1.701002	-0.654916	 175.873300	-160.477400	 13.120150	-31.492440	 5.131020	-18.568610	 3.222601	-6.178451	 59.372850	 1.333074	 1.151173	 26.542470	-2.655369	 171.339700	 7.658277	 30.282330	-2.150497	-26.348410	 9.990580	 18.899950	 73.365480	-15.063810	-1.338207	 29.015990	 2.731637	 1.913998	 5.761560	-14.539790	 0.874048	 5.759365	 1.004510	-0.147738	-5.133827	 3.227701	-108.166500	 4.532600	 92.739690	 9.518791	 45.982440	 16.491270	 39.783410	-0.700685	 38.572080	 16.218360	-21.854860	 15.903470	 0.777879	 14.960960	-0.337803	-5.870856	 19.977400	 2.209573	 5.219110	 1.730541	-0.218886	 3.840762	-7.862331	-1.031078	-0.280304	-6.341797	 2.262695	 116.327500	 16.176030	-97.262130	 6.450300	 44.621210	-15.599560	-29.643560	-0.203237	-38.267850	-12.681700	-11.384610	-46.632900	-2.376936	 4.241286	 0.895107	 12.478560	 22.049140	-4.955544	-8.497346	 12.734500	-0.502299
-0.011239	 1.256683	-0.007246	 1.944224	-0.281032	 174.354400	-159.901800	 11.758550	-33.095810	 4.658217	-16.964070	 1.709304	-8.717649	 57.978160	 3.930021	 1.152434	 26.559600	-2.655869	 172.037600	 7.836290	 29.237580	-2.130339	-26.134630	 9.353889	 15.097530	 73.059960	-11.982200	-1.332868	 28.946470	 2.729320	 3.467576	 5.070560	-28.079280	 3.015723	 5.875177	-0.750509	-1.854179	-5.333920	 6.417613	-109.109400	 4.862778	 92.740650	 9.062385	 43.817400	 15.135210	 45.815850	-0.934500	 38.616020	 9.364410	-8.870670	 5.956063	 0.687838	 12.712390	-0.330957	-5.889902	 17.700200	 1.961780	 5.136405	-0.157622	-0.258130	 3.696915	-7.815696	-0.736529	-0.545889	-6.280330	 3.785965	 117.637500	 14.906490	-97.060960	 5.517633	 43.704930	-13.802590	-29.506460	-0.202363	-38.096750	-6.841882	 1.742604	-52.633530	-2.382951	 4.303705	 0.901746	 12.485990	 22.158000	-4.981562	-8.498276	 12.836260	-0.508722
-0.006140	 1.257682	-0.000385	 2.116936	-0.002492	 173.021000	-159.592700	 10.747490	-34.453910	 4.314077	-15.777760	 0.314014	-10.748820	 56.864330	 6.135240	 1.153559	 26.574870	-2.656316	 172.441500	 8.211109	 28.332830	-2.149140	-26.334090	 8.784546	 12.145340	 72.845810	-9.552203	-1.328115	 28.884490	 2.727261	 4.502803	 4.312597	-37.477440	 4.483447	 5.949715	-2.116846	-3.040463	-5.465183	 8.774858	-109.950400	 5.157075	 92.746090	 10.905230	 42.497060	 12.341440	 47.550990	-1.046987	 36.976910	 7.699380	 0.504676	-1.402540	 0.608401	 10.707460	-0.327931	-5.915318	 15.669800	 1.742652	 5.061536	-1.841044	-0.295437	 3.568493	-7.774740	-0.473880	-0.775929	-6.239964	 5.028039	 118.803200	 13.778560	-96.857400	 3.439302	 42.426880	-11.243800	-28.403850	-0.203268	-36.365910	 0.825922	 12.006730	-58.261000	-2.388320	 4.359349	 0.907671	 12.492650	 22.255040	-5.004785	-8.499095	 12.926960	-0.514448
-0.002957	 1.257779	 0.005047	 2.233827	 0.264417	 171.713300	-159.249900	 10.103380	-35.800660	 4.235969	-15.506490	-1.029074	-12.987260	 56.249180	 8.450846	 1.154733	 26.590810	-2.656782	 172.671700	 8.568190	 27.423930	-2.188918	-26.753910	 8.223437	 9.630944	 72.732440	-7.390020	-1.323113	 28.819190	 2.725101	 5.203691	 3.663589	-43.551470	 5.228214	 6.152937	-2.969467	-3.800179	-5.601176	 10.737300	-110.803000	 5.457248	 92.757350	 13.552680	 41.702020	 9.241917	 45.055320	-1.055390	 33.655620	 10.079340	 5.724174	-7.392482	 0.531082	 8.732178	-0.327992	-5.947941	 13.669540	 1.527840	 4.986617	-3.499152	-0.334389	 3.439308	-7.727036	-0.205231	-1.000849	-6.199011	 6.164181	 119.983700	 12.649590	-96.633080	 1.045404	 41.423860	-8.456881	-26.316480	-0.204684	-33.090750	 8.242950	 19.012540	-63.078710	-2.393095	 4.418373	 0.913373	 12.499640	 22.355920	-5.028955	-8.499894	 13.016380	-0.520093
-0.003046	 1.257066	 0.006806	 2.456470	 0.323662	 171.786200	-158.828200	 10.557010	-35.925760	 4.504367	-16.435530	-0.117627	-11.784440	 56.652860	 7.032715	 1.156161	 26.610110	-2.657344	 172.764900	 8.660612	 27.650300	-2.226215	-27.144970	 8.134542	 9.492713	 72.740170	-7.231234	-1.316035	 28.726810	 2.722056	 5.321172	 3.591521	-45.538460	 6.228940	 6.045837	-3.766008	-4.674983	-5.456215	 12.170270	-111.319400	 5.683187	 92.794440	 13.634880	 41.582320	 8.860905	 41.856970	-1.075515	 28.974040	 9.854371	 10.709490	-11.604540	 0.538523	 8.714315	-0.333951	-5.948283	 13.650850	 1.525833	 4.986493	-3.501848	-0.334454	 3.384719	-7.554461	 0.008779	-1.078464	-6.166375	 6.518078	 120.718400	 12.166110	-96.590930	-0.706241	 41.203890	-7.202533	-23.359200	-0.206014	-28.462000	 10.938310	 19.089870	-65.187430	-2.381742	 4.509941	 0.910295	 12.507650	 22.470810	-5.056511	-8.499904	 13.017510	-0.520163
-0.004941	 1.255199	 0.007956	 2.680163	 0.406771	 171.878300	-158.259300	 11.428280	-36.091380	 5.071874	-18.369480	 0.946074	-10.736200	 57.590020	 5.676787	 1.157790	 26.632120	-2.657985	 172.679500	 8.827143	 27.900550	-2.303494	-27.945890	 8.018882	 9.676914	 72.938520	-7.233922	-1.307981	 28.621510	 2.718604	 5.184351	 3.898105	-43.178250	 6.761051	 5.916858	-4.227805	-5.286907	-5.264840	 13.400410	-111.908600	 5.940334	 92.839230	 12.709920	 42.154320	 9.439668	 37.384790	-1.104380	 22.206320	 8.415638	 9.421697	-15.022520	 0.547002	 8.693953	-0.340741	-5.948673	 13.629550	 1.523545	 4.986352	-3.504921	-0.334528	 3.321722	-7.357983	 0.252840	-1.164660	-6.115814	 6.817971	 121.554900	 11.615580	-96.535230	-3.154781	 41.184730	-5.414972	-19.084090	-0.207163	-21.766860	 8.070005	 15.732850	-63.828340	-2.368793	 4.614323	 0.906764	 12.516860	 22.601770	-5.087971	-8.499915	 13.018790	-0.520243
-0.007344	 1.253422	 0.008430	 2.885924	 0.483747	 171.966900	-157.746500	 12.203220	-36.250640	 5.609960	-20.162570	 1.965314	-9.656347	 58.475680	 4.321628	 1.159430	 26.654270	-2.658631	 172.563500	 8.932249	 28.140940	-2.374493	-28.671760	 7.907100	 9.932074	 73.109790	-7.275945	-1.299891	 28.515530	 2.715150	 4.716001	 4.536160	-36.361620	 6.951748	 5.832292	-4.396406	-5.646409	-5.079099	 14.289680	-112.502100	 6.198654	 92.887050	 11.581570	 42.846020	 10.252390	 31.884440	-1.120013	 14.198920	 5.084373	 1.806522	-17.608120	 0.555532	 8.673459	-0.347571	-5.949066	 13.608100	 1.521243	 4.986211	-3.508014	-0.334603	 3.257502	-7.160523	 0.498565	-1.250284	-6.050164	 7.029029	 122.395700	 11.062420	-96.471060	-5.443023	 41.055260	-3.734338	-14.042920	-0.207248	-13.852500	-0.992741	 8.985864	-60.065900	-2.355753	 4.719367	 0.903186	 12.526230	 22.733570	-5.119685	-8.499928	 13.020080	-0.520324
-0.008673	 1.252946	 0.008473	 3.032033	 0.531829	 172.045000	-157.463800	 12.524370	-36.360990	 5.852698	-20.957900	 2.768081	-8.479238	 58.844310	 2.978827	 1.160915	 26.674310	-2.659217	 172.550800	 8.883937	 28.409010	-2.431614	-28.903300	 7.756707	 9.919910	 73.069300	-7.158120	-1.292581	 28.419600	 2.712041	 3.947768	 5.249956	-27.169950	 7.061203	 5.841566	-4.453990	-5.865901	-4.951362	 14.845640	-113.039700	 6.432067	 92.932650	 10.811460	 42.994180	 10.658220	 26.656190	-1.134501	 6.286236	 0.413334	-8.493969	-20.222260	 0.563252	 8.654907	-0.353751	-5.949423	 13.588690	 1.519159	 4.986082	-3.510813	-0.334671	 3.198654	-6.982005	 0.721116	-1.327637	-5.978465	 7.155269	 123.155900	 10.562550	-96.405930	-5.071838	 40.565350	-3.857996	-11.643260	-0.306245	-6.044592	-11.866530	 0.549234	-56.645880	-2.343941	 4.814462	 0.899926	 12.534780	 22.852880	-5.148443	-8.499937	 13.021260	-0.520396
-0.009416	 1.253433	 0.008785	 3.081790	 0.493362	 172.086500	-157.358400	 12.694970	-36.560280	 5.934063	-21.222490	 3.037803	-7.934848	 58.871130	 2.448383	 1.161451	 26.681530	-2.659427	 172.501600	 8.937704	 28.667550	-2.422976	-28.914180	 7.764972	 9.799377	 72.888370	-7.048603	-1.290198	 28.388310	 2.711030	 3.143743	 5.714405	-18.850330	 6.874530	 6.156660	-4.366358	-5.859348	-5.070393	 15.121400	-113.200400	 6.499570	 92.945180	 9.356360	 42.178420	 11.421260	 21.951770	-1.108193	 0.131095	-2.126100	-17.557170	-23.040730	 0.564973	 8.649734	-0.355620	-5.949542	 13.582180	 1.518462	 4.986033	-3.511879	-0.334697	 3.181540	-6.914527	 0.799202	-1.336175	-5.962900	 7.221646	 123.394200	 10.407390	-96.384900	-4.039534	 40.550420	-4.533946	-9.142566	-0.358278	 0.030010	-21.412770	-6.447253	-55.210630	-2.335968	 4.843307	 0.898583	 12.536420	 22.875650	-5.153937	-8.499935	 13.020700	-0.520359
